<?xml version="1.0" encoding="UTF-8"?>
<svg id="Calque_1" data-name="Calque 1" xmlns="http://www.w3.org/2000/svg" viewBox="0 0 1651.37 474.23">
  <defs>
    <style>
      .cls-1 {
        fill: #fff;
      }
    </style>
  </defs>
  <path class="cls-1" d="m0,.02c2.06-.16,3.87.52,5.69,1.44,25.71,12.89,51.4,25.84,77.23,38.49,3.73,1.83,3.86,4.29,3.86,7.59-.04,93.59-.03,187.18-.03,280.77,0,1.17.1,2.34-.02,3.5-.41,4.09.98,4.31,4.38,2.61,34.41-17.27,68.92-34.34,103.29-51.68,3.72-1.87,6.55-1.8,10.17.03,31.17,15.73,62.4,31.34,93.7,46.82,3.29,1.63,4.55,3.46,4.53,7.18-.16,25.48-.08,50.96-.09,76.44,0,5.25.08,4.94-4.76,2.72-21.89-10.06-43.19-21.31-64.73-32.09-9.33-4.67-18.61-9.49-27.68-14.63-4.1-2.33-7.4-2.08-11.52-.01-49.31,24.81-98.71,49.45-148.09,74.13-13.79,6.89-27.58,13.78-41.39,20.63-1.47.73-3.03,1.25-4.55,1.87,0-155.27,0-310.54,0-465.81Z"/>
  <path class="cls-1" d="m406.95,471.2c-22.26-10.9-43.52-21.29-64.76-31.73-5.64-2.77-11.09-5.98-16.85-8.47-3.6-1.56-4.21-3.88-4.2-7.4.09-56.13.06-112.27.06-168.4,0-38.64,0-77.29,0-115.93q0-5.79-5.19-3.23c-34.46,17.05-68.94,34.07-103.36,51.21-3.06,1.52-5.53,1.99-8.82.34-28.88-14.44-57.63-29.19-86.94-42.71-9.42-4.34-12.6-9.13-12.12-19.53,1.03-22.27.29-44.63.34-66.95.01-5.82.12-5.83,5.17-3.3,30.93,15.48,61.89,30.91,92.75,46.53,3.31,1.68,5.78,1.52,9.03-.11,62.71-31.48,125.49-62.83,188.25-94.21.59-.3,1.18-.59,1.78-.88,4.61-2.22,4.85-2.09,4.85,3.15.01,45.31,0,90.61,0,135.92v325.7Z"/>
  <path class="cls-1" d="m489.21,315.99c-2.59,3.94-.37,6.82-.24,9.72,2.12,47.2.73,94.43,1.2,141.65.03,2.9-.88,3.57-3.62,3.53-10.33-.15-20.66-.14-30.98,0-2.66.04-3.69-.46-3.68-3.45.09-68.78.09-137.57,0-206.35,0-2.78.95-3.23,3.41-3.22,16.33.09,32.65.11,48.98-.01,2.77-.02,4.01.8,4.73,3.52,4.2,15.82,8.63,31.57,12.9,47.37,5.6,20.76,11.13,41.54,16.67,62.32,2.48,9.3,4.97,18.6,7.31,27.94.31,1.25.63,2.53,1.75,2.7,2,.3,1.07-1.51,1.33-2.45,8.58-31.25,17.22-62.48,25.71-93.76,3.91-14.41,7.53-28.89,11.3-43.34.72-2.76,1.6-4.48,5.41-4.4,16.15.36,32.32.23,48.47.08,3.1-.03,4.18.57,4.17,3.99-.11,68.28-.1,136.57-.03,204.85,0,3-.38,4.33-3.93,4.24-10.66-.27-21.32-.17-31.98-.04-2.54.03-3.38-.58-3.37-3.27.14-45.96.11-91.93.33-137.89.02-4.24,1.59-8.47-.49-12.87-2.53,8.98-5.15,17.93-7.56,26.93-5.53,20.62-10.93,41.27-16.44,61.89-5.51,20.62-11.09,41.21-16.6,61.83-.62,2.32-1.61,3.47-4.34,3.4-8.32-.21-16.66-.14-24.99-.04-2.82.03-4-.47-4.87-3.83-6.82-26.41-14.11-52.7-21.21-79.04-6.39-23.68-12.71-47.38-19.32-72.01Z"/>
  <path class="cls-1" d="m604.51,61.96c-2.52,9-5.12,17.98-7.54,27.01-5.54,20.62-10.97,41.26-16.47,61.89-5.51,20.62-11.05,41.23-16.59,61.85-.53,1.97-1.28,3.36-3.91,3.3-8.83-.19-17.66-.1-26.49-.05-2.12.01-3.05-.63-3.66-2.94-7.02-26.7-14.24-53.34-21.39-80.01-6.35-23.67-12.67-47.35-19.09-71.35-2.18,1.34-1.51,3.19-1.37,4.56,1.16,11.63,2.1,23.27,2.1,34.97.01,36.65-.05,73.29.09,109.94.01,3.79-.78,5.05-4.8,4.92-9.99-.32-19.99-.22-29.99-.04-2.9.05-3.52-.87-3.52-3.62.07-68.63.08-137.25,0-205.88,0-2.86.81-3.57,3.59-3.54,16.33.13,32.66.14,48.98,0,2.94-.03,3.86,1.23,4.53,3.73,4.24,15.81,8.66,31.57,12.91,47.37,5.55,20.61,11.02,41.25,16.5,61.88,2.55,9.62,5.02,19.26,7.57,28.87.28,1.05.93,2,1.88,3.98,2.18-7.89,4.17-14.93,6.08-22,5.82-21.54,11.6-43.08,17.4-64.62,4.88-18.14,9.82-36.25,14.54-54.43.89-3.44,2.09-4.9,6.01-4.83,15.99.27,31.99.2,47.98.04,3.14-.03,4.16.62,4.15,4.01-.11,68.29-.1,136.59-.02,204.88,0,3.09-.54,4.27-3.98,4.18-10.49-.25-20.99-.22-31.49-.01-3.11.06-3.84-.79-3.83-3.85.16-45.47.14-90.94.3-136.41.02-4.55,1.82-9.1-.48-13.79Z"/>
  <path class="cls-1" d="m952.78,366.25c-.19-15.14-.19-27.69,2.15-40.05,3.98-21.04,10.51-41.02,27.13-55.88,9.46-8.46,20.78-12.94,33.46-14.49,12.69-1.56,25-.82,37.25,3,19.3,6.02,31.2,19.73,38.95,37.44,5.92,13.53,9.09,27.84,10.28,42.66.72,9,2.03,18.01,1.74,26.99-.8,24.39-2.99,48.67-14.41,70.89-9.57,18.63-23.92,32.06-45.12,35.7-16.01,2.75-32.19,2.86-47.38-4.69-16.39-8.15-26.85-21.76-33.8-38.11-5.25-12.34-7.7-25.47-9.31-38.85-1.1-9.12-.17-18.18-.92-24.61Zm108.62-1.74c.08-7.93-.87-15.79-1.44-23.68-.8-11.08-2.87-21.8-7.12-32.04-2.85-6.86-7.1-12.84-14.1-15.79-11.02-4.66-24.23-2.72-31.91,9.93-9.35,15.4-11.3,32.72-11.74,50.07-.37,14.42-.83,28.95,1.87,43.34,1.93,10.29,3.97,20.36,9.86,29.35,10.67,16.29,29.77,15.39,39.82,3.79,5.35-6.18,8.17-13.89,10.13-21.65,3.58-14.17,4.3-28.75,4.65-43.31Z"/>
  <path class="cls-1" d="m1525.91,215.94c-14.46,0-28.59-.08-42.71.08-2.35.03-2.75-1.56-3.29-2.84-6.43-15.19-12.75-30.42-19.08-45.65-4.48-10.78-8.97-21.57-13.34-32.4-.87-2.17-2.39-2.16-4.25-2.18-8.42-.1-8.42-.13-8.42,8.11,0,23.48-.11,46.96.11,70.44.03,3.85-1.04,4.62-4.67,4.54-10.82-.25-21.65-.17-32.48-.04-2.73.03-4.05-.18-4.04-3.61.12-68.61.11-137.22.03-205.83,0-2.79.69-3.61,3.54-3.59,16.99.14,33.99-.3,50.97.19,11.35.33,22.69,1.94,33.32,6.36,16.89,7.02,26.84,20.15,29.95,37.72,2.46,13.91,2.36,28.03-1.62,41.99-3.9,13.71-12.66,23.51-23.74,31.52-2.77,2.01-2.98,2.88-1.61,5.84,10.23,22.14,20.72,44.16,31.05,66.24,3.5,7.48,7.94,14.62,10.28,23.12Zm-91.09-146.92v20.45q0,11.9,11.99,10.99c11.47-.88,20.05-7.57,22.74-17.99,2.05-7.93,1.94-16.14,1.05-24.07-1.11-9.92-6.94-16.72-17.07-19.44-5.09-1.37-10.2-.57-15.28-1-2.95-.25-3.54.91-3.49,3.62.16,9.14.06,18.29.06,27.44Z"/>
  <path class="cls-1" d="m721.91,82.29c0,24.82-.31,49.64.15,74.45.19,10.45,3.85,20.2,14.59,24.26,14.13,5.34,28.27.32,32.23-14.74,2.3-8.73,3.03-17.66,3.03-26.67-.02-43.65.09-87.29-.15-130.94-.03-5.03,1.41-5.92,6.02-5.75,10.15.38,20.33.24,30.49.05,3.25-.06,4.57.45,4.56,4.21-.14,46.64.26,93.29-.27,139.93-.2,17.88-3.21,35.43-14.55,50.46-7.04,9.34-16.15,15.41-27.24,18.35-16.2,4.29-32.78,5.18-48.86.34-21.28-6.4-33.87-21.49-39.04-43.01-1.98-8.25-2.1-16.59-2.1-24.95-.04-46.81.03-93.62-.1-140.44-.01-3.78.77-5.04,4.8-4.92,10.66.32,21.33.26,31.99.02,3.52-.08,4.4.89,4.38,4.39-.16,24.99-.08,49.98-.08,74.96.05,0,.11,0,.16,0Z"/>
  <path class="cls-1" d="m1248.24,215.94c-13.94,0-27.6-.04-41.26.04-2.15.01-2.77-.38-3.26-2.84-3.05-15.42-6.6-30.75-9.76-46.15-.38-1.85-1.01-2.04-2.49-2.04-14.16.03-28.33.03-42.49,0-2.41,0-2.77,1.28-3.21,3.38-3.17,15.01-6.73,29.95-9.75,44.99-.53,2.66-1.51,2.66-3.45,2.65-12.5-.04-25-.18-37.49.07-3.9.08-3.65-2.23-3.07-4.32,4.83-17.57,8.7-35.36,12.93-53.08,6.2-26,12.58-51.95,18.93-77.91,3.82-15.61,7.74-31.2,11.55-46.81,2.21-9.06,4.35-18.15,6.41-27.25.58-2.56,1.61-3.75,4.53-3.72,15.33.15,30.66.15,45.99,0,2.93-.03,3.91,1.19,4.53,3.72,7.54,30.59,15.15,61.15,22.73,91.73,8.7,35.09,17.49,70.17,25.97,105.32.94,3.9,2.13,7.8,2.66,12.21Zm-77.67-176.68c-3.03,3.27-1.95,7.4-2.5,10.88-2.14,13.74-5.18,27.29-7.77,40.94-2.17,11.44-4.21,22.91-6.49,34.33-.69,3.45.47,4.19,3.73,4.12,8.82-.2,17.66-.17,26.48-.01,2.81.05,3.44-.9,2.87-3.48-2.94-13.42-5.95-26.83-8.66-40.3-3.06-15.24-5.95-30.52-7.67-46.49Z"/>
  <path class="cls-1" d="m1266.84,109.42c0-33.97.07-67.95-.1-101.92-.02-3.79.96-4.59,4.63-4.57,28.99.17,57.97.15,86.96.01,3.44-.02,4.53.78,4.42,4.35-.27,8.98-.25,17.99,0,26.97.08,3.21-.96,3.84-3.94,3.81-15.66-.14-31.32.03-46.98-.15-3.28-.04-4.12.84-4.08,4.09.19,13.99.19,27.98,0,41.97-.04,3.27.83,4.12,4.09,4.08,14.32-.19,28.65.03,42.98-.16,3.26-.04,4.17.81,4.09,4.08-.23,9.15-.19,18.32-.02,27.48.05,2.82-.74,3.6-3.57,3.57-14.49-.14-28.99.04-43.48-.14-3.25-.04-4.13.8-4.09,4.08.18,16.49.17,32.97,0,49.46-.03,3.26.84,4.13,4.1,4.09,15.49-.18,30.99.03,46.48-.16,3.51-.04,4.51.96,4.41,4.45-.24,9.15-.17,18.32-.03,27.48.04,2.7-.55,3.72-3.51,3.71-29.65-.11-59.31-.14-88.96.03-3.67.02-3.44-1.72-3.44-4.19.04-34.14.02-68.28.02-102.42Z"/>
  <path class="cls-1" d="m970.76,3.02c-5.52,14.51-10.92,28.72-16.34,42.93-8.85,23.19-17.7,46.38-26.56,69.57-.63,1.66-1.2,3.35-2,4.93-4.74,9.36-5.27,19.31-5.09,29.61.37,20.48-.01,40.97.22,61.45.04,3.89-1.1,4.6-4.69,4.52-10.66-.25-21.32-.25-31.98,0-3.56.08-4.38-.95-4.35-4.42.16-22.98-.17-45.97.21-68.95.14-8.71-3.83-15.91-6.69-23.51-13.19-35.05-26.68-69.98-39.93-105-1.33-3.51-5.09-7.81-2.95-10.46,1.56-1.93,7.19-.63,11-.65,8.33-.04,16.67.18,24.99-.1,4.01-.13,5.69.85,7.01,5.11,6.22,20.04,13.04,39.89,19.69,59.8,1.77,5.31,3.78,10.55,5.49,15.88.39,1.22.22,2.96,1.76,2.9,1.11-.04,1.07-1.73,1.43-2.84,7.24-22.4,14.56-44.77,21.91-67.13,1.48-4.52,1.88-10.63,5.04-13.01,3-2.25,8.96-.6,13.61-.61,9.29-.02,18.59,0,28.21,0Z"/>
  <path class="cls-1" d="m1611.97,127.43c0,27.97-.07,55.94.08,83.9.02,3.55-.56,4.84-4.51,4.71-10.48-.33-20.99-.33-31.47,0-3.93.12-4.52-1.13-4.52-4.7.12-55.77.01-111.54.2-167.31.02-4.77-1.44-5.75-5.83-5.62-9.98.31-19.98,0-29.97.16-3.07.05-4.35-.5-4.25-4.02.28-9.31.19-18.64.04-27.96-.05-2.72.57-3.65,3.5-3.64,37.47.1,74.94.09,112.41.01,2.7,0,3.78.54,3.72,3.51-.19,9.49-.17,18.98,0,28.47.05,2.9-.92,3.67-3.71,3.63-9.99-.15-19.99.15-29.97-.15-4.37-.13-5.89.81-5.84,5.61.26,27.8.13,55.6.13,83.4Z"/>
  <path class="cls-1" d="m989.88,109.16c0-33.81.08-67.62-.1-101.42-.02-3.98,1.07-4.91,4.9-4.81,10.49.27,20.99.3,31.48-.01,4-.12,4.82,1.08,4.81,4.9-.13,55.79-.03,111.58-.2,167.37-.01,4.39,1.03,5.45,5.39,5.37,15.82-.29,31.65-.03,47.48-.18,3.26-.03,4.24.88,4.16,4.2-.23,9.32-.16,18.65-.03,27.98.04,2.52-.51,3.46-3.26,3.45-30.49-.1-60.97-.14-91.46.03-4.01.02-3.15-2.27-3.15-4.44-.01-34.14,0-68.28,0-102.42Z"/>
  <path class="cls-1" d="m837.9,364.38c0-33.97.06-67.95-.09-101.92-.02-3.66.74-4.75,4.56-4.64,10.49.3,20.99.32,31.48,0,4.11-.13,5.17.86,5.15,5.07-.16,55.62-.06,111.25-.21,166.87-.01,4.4.89,5.8,5.56,5.7,15.65-.33,31.32-.03,46.97-.2,3.42-.04,4.59.78,4.49,4.38-.26,8.99-.28,17.99,0,26.97.12,3.65-1.12,4.3-4.48,4.29-29.82-.13-59.64-.13-89.46,0-3.31.02-4.06-.9-4.05-4.11.12-34.14.07-68.28.07-102.42Z"/>
  <path class="cls-1" d="m796.56,470.83c-6.16,0-12.33-.06-18.49.03-2.1.03-2.82-.29-3.31-2.8-3.05-15.48-6.61-30.87-9.76-46.33-.41-2.01-1.3-1.89-2.63-1.89-14.32,0-28.65,0-42.97,0-1.39,0-2.19,0-2.58,1.96-3.16,15.79-6.64,31.52-9.83,47.3-.43,2.12-1.59,1.71-2.79,1.71-12.83.02-25.65-.11-38.47.09-3.84.06-3.18-2.44-2.69-4.2,4.53-16.27,8.03-32.78,11.98-49.19,5.17-21.47,10.65-42.86,15.88-64.32,5.28-21.7,10.37-43.45,15.85-65.11,2.18-8.63,4.36-17.31,6.11-26.06.57-2.87,1.59-4.2,4.75-4.17,15.32.13,30.65.1,45.97.02,2.75-.01,3.76.7,4.49,3.72,6.35,26.37,13.09,52.64,19.61,78.97,6.09,24.59,12.34,49.14,17.96,73.83,4.03,17.72,8.55,35.3,13.07,52.88.76,2.96-.31,3.68-3.15,3.61-6.32-.17-12.66-.05-18.99-.05Zm-55.08-177.1c-.66,1.6-1.43,2.69-1.52,3.82-1.22,16.53-5.63,32.47-8.74,48.66-2.17,11.27-4.14,22.57-6.33,33.83-.68,3.49.3,4.52,3.93,4.41,8.64-.28,17.3-.2,25.95-.03,2.92.06,3.81-.76,3.17-3.66-1.47-6.65-2.46-13.42-4.16-20.01-5.62-21.84-8.57-44.16-12.31-67.01Z"/>
</svg>